<?xml version="1.0" encoding="UTF-8" standalone="no"?>
<svg
   xmlns:dc="http://purl.org/dc/elements/1.1/"
   xmlns:cc="http://creativecommons.org/ns#"
   xmlns:rdf="http://www.w3.org/1999/02/22-rdf-syntax-ns#"
   xmlns:svg="http://www.w3.org/2000/svg"
   xmlns="http://www.w3.org/2000/svg"
   id="svg8"
   version="1.1"
   viewBox="0 0 20.455759 7.2679367"
   height="7.2679367mm"
   width="20.455759mm">
  <defs
     id="defs2" />
  <metadata
     id="metadata5">
    <rdf:RDF>
      <cc:Work
         rdf:about="">
        <dc:format>image/svg+xml</dc:format>
        <dc:type
           rdf:resource="http://purl.org/dc/dcmitype/StillImage" />
        <dc:title></dc:title>
        <cc:license
           rdf:resource="http://creativecommons.org/publicdomain/zero/1.0/" />
      </cc:Work>
      <cc:License
         rdf:about="http://creativecommons.org/publicdomain/zero/1.0/">
        <cc:permits
           rdf:resource="http://creativecommons.org/ns#Reproduction" />
        <cc:permits
           rdf:resource="http://creativecommons.org/ns#Distribution" />
        <cc:permits
           rdf:resource="http://creativecommons.org/ns#DerivativeWorks" />
      </cc:License>
    </rdf:RDF>
  </metadata>
  <g
     transform="translate(-22.200015,-64.269371)"
     id="layer1" />
  <g
     transform="translate(-22.200015,-64.269371)"
     id="g3739">
    <g
       id="text4562"
       style="font-style:normal;font-variant:normal;font-weight:normal;font-stretch:normal;font-size:10.58333302px;line-height:125%;font-family:Uroob;-inkscape-font-specification:Uroob;letter-spacing:0px;word-spacing:0px;fill:#000000;fill-opacity:1;stroke:none;stroke-width:0.26458332px;stroke-linecap:butt;stroke-linejoin:miter;stroke-opacity:1"
       aria-label="FMIGo!">
      <path
         id="path831"
         style="font-style:normal;font-variant:normal;font-weight:normal;font-stretch:normal;font-family:Uroob;-inkscape-font-specification:Uroob;stroke-width:0.26458332px"
         d="m 26.186494,65.579015 h -2.17041 q -0.201538,0 -0.294556,0.129191 -0.09302,0.129191 -0.09302,0.315227 v 1.596801 h 2.34611 v 0.795817 h -2.34611 v 2.96106 H 22.693167 V 65.8529 q 0,-0.470255 0.403077,-0.785481 0.382405,-0.304891 0.857828,-0.304891 h 2.232422 z" />
      <path
         id="path833"
         style="font-style:normal;font-variant:normal;font-weight:normal;font-stretch:normal;font-family:Uroob;-inkscape-font-specification:Uroob;stroke-width:0.26458332px"
         d="m 26.703258,65.036413 q 0,-0.299724 0.496094,-0.268718 0.118856,0.01034 0.19637,0.01034 v 0.0052 h 0.108521 l 1.586466,3.591512 1.591634,-3.591512 h 0.05684 v -0.0052 h 0.434082 q 0.186036,0 0.279053,0.155029 0.03101,0.04651 0.03101,0.103353 v 6.345865 h -0.950846 v -4.087605 l -0.992188,2.356445 h -0.894002 l -0.992187,-2.139404 v 3.870564 h -0.950847 z" />
      <path
         id="path835"
         style="font-style:normal;font-variant:normal;font-weight:normal;font-stretch:normal;font-family:Uroob;-inkscape-font-specification:Uroob;stroke-width:0.26458332px"
         d="m 32.945771,71.382278 h -0.950846 v -6.345865 q 0,-0.103353 0.07752,-0.180868 0.07751,-0.07751 0.180867,-0.07751 h 0.434082 q 0.103353,0 0.180868,0.07751 0.07751,0.07751 0.07751,0.180868 z" />
      <path
         id="path837"
         style="font-style:normal;font-variant:normal;font-weight:normal;font-stretch:normal;font-family:Uroob;-inkscape-font-specification:Uroob;stroke-width:0.26458332px"
         d="m 37.105724,67.981969 q 0.315226,0 0.315226,0.237712 v 3.162597 h -0.89917 v -0.268717 q -0.310058,0.268717 -0.72347,0.268717 h -1.188558 q -0.475423,0 -0.800984,-0.299723 -0.346232,-0.304891 -0.346232,-0.769979 V 65.8529 q 0,-0.470255 0.403076,-0.785481 0.382405,-0.304891 0.857828,-0.304891 h 1.560629 q 0.45992,0 0.790649,0.315226 0.335897,0.315226 0.335897,0.775146 v 0.423747 h -0.935344 q 0,-0.346232 -0.04134,-0.45992 -0.08268,-0.237712 -0.366902,-0.237712 h -1.281576 q -0.201538,0 -0.294556,0.129191 -0.09302,0.129191 -0.09302,0.315227 v 4.16512 q 0,0.387573 0.387573,0.387573 h 0.950846 q 0.294556,0 0.506429,-0.206706 0.211874,-0.201538 0.211874,-0.496093 v -0.992188 h -0.837158 v -0.661458 q 0,-0.186035 0.113688,-0.222209 0.07751,-0.02584 0.165364,-0.0155 z" />
      <path
         id="path839"
         style="font-style:normal;font-variant:normal;font-weight:normal;font-stretch:normal;font-family:Uroob;-inkscape-font-specification:Uroob;stroke-width:0.26458332px"
         d="m 41.100312,70.297073 q 0,0.444418 -0.382406,0.764812 -0.356567,0.294555 -0.821655,0.294555 h -0.666626 q -0.470256,0 -0.837158,-0.289388 -0.397909,-0.315226 -0.397909,-0.769979 v -2.904215 q 0,-0.454753 0.397909,-0.769979 0.37207,-0.294555 0.837158,-0.294555 h 0.666626 q 0.454753,0 0.821655,0.299723 0.382406,0.315226 0.382406,0.764811 z M 40.216645,70.126541 V 67.56339 q 0,-0.19637 -0.113688,-0.330729 -0.108521,-0.139526 -0.320394,-0.139526 h -0.490926 q -0.217041,0 -0.315226,0.139526 -0.09819,0.134359 -0.09819,0.330729 v 2.563151 q 0,0.196371 0.09819,0.335897 0.09819,0.134359 0.315226,0.134359 h 0.490926 q 0.211873,0 0.320394,-0.134359 0.113688,-0.139526 0.113688,-0.335897 z" />
      <path
         id="path841"
         style="font-style:normal;font-variant:normal;font-weight:normal;font-stretch:normal;font-family:Uroob;-inkscape-font-specification:Uroob;stroke-width:0.26458332px"
         d="m 42.593761,66.66422 v 0.04134 l -0.206705,2.992066 h -0.61495 L 41.5654,66.705561 v -0.04134 q 0,-0.144694 0.08785,-0.237711 0.149862,-0.160197 0.299724,-0.160197 h 0.253214 q 0.232544,0 0.356568,0.258382 0.03101,0.06718 0.03101,0.139526 z m -0.521932,3.68453 q 0.583944,0 0.583944,0.594279 0,0.594279 -0.583944,0.594279 -0.28422,0 -0.439249,-0.15503 -0.15503,-0.155029 -0.15503,-0.439249 0,-0.284221 0.15503,-0.43925 0.155029,-0.155029 0.439249,-0.155029 z" />
    </g>
  </g>
  <g
     transform="translate(-22.200015,-64.269371)"
     id="g4576">
    <g
       id="text4574"
       style="font-style:normal;font-variant:normal;font-weight:normal;font-stretch:normal;font-size:10.58333302px;line-height:125%;font-family:Uroob;-inkscape-font-specification:Uroob;letter-spacing:0px;word-spacing:0px;fill:#00b9ff;fill-opacity:1;stroke:none;stroke-width:0.26458332px;stroke-linecap:butt;stroke-linejoin:miter;stroke-opacity:1"
       aria-label="FMIGo!">
      <path
         id="path818"
         style="font-style:normal;font-variant:normal;font-weight:normal;font-stretch:normal;font-family:Uroob;-inkscape-font-specification:Uroob;fill:#00b9ff;fill-opacity:1;stroke-width:0.26458332px"
         d="m 25.693341,65.085859 h -2.17041 q -0.201538,0 -0.294555,0.129191 -0.09302,0.129191 -0.09302,0.315226 v 1.596802 h 2.34611 v 0.795817 h -2.34611 v 2.961059 h -0.935343 v -5.52421 q 0,-0.470256 0.403076,-0.785482 0.382405,-0.304891 0.857829,-0.304891 h 2.232421 z" />
      <path
         id="path820"
         style="font-style:normal;font-variant:normal;font-weight:normal;font-stretch:normal;font-family:Uroob;-inkscape-font-specification:Uroob;fill:#00b9ff;fill-opacity:1;stroke-width:0.26458332px"
         d="m 26.210106,64.543256 q 0,-0.299723 0.496093,-0.268717 0.118856,0.01033 0.196371,0.01033 v 0.0052 h 0.10852 l 1.586467,3.591512 1.591634,-3.591512 h 0.05684 v -0.0052 h 0.434082 q 0.186035,0 0.279053,0.155029 0.03101,0.04651 0.03101,0.103353 v 6.345866 h -0.950846 v -4.087606 l -0.992187,2.356446 h -0.894003 l -0.992187,-2.139405 v 3.870565 h -0.950846 z" />
      <path
         id="path822"
         style="font-style:normal;font-variant:normal;font-weight:normal;font-stretch:normal;font-family:Uroob;-inkscape-font-specification:Uroob;fill:#00b9ff;fill-opacity:1;stroke-width:0.26458332px"
         d="m 32.452619,70.889122 h -0.950846 v -6.345866 q 0,-0.103353 0.07751,-0.180867 0.07751,-0.07751 0.180868,-0.07751 h 0.434082 q 0.103353,0 0.180867,0.07751 0.07751,0.07751 0.07751,0.180867 z" />
      <path
         id="path824"
         style="font-style:normal;font-variant:normal;font-weight:normal;font-stretch:normal;font-family:Uroob;-inkscape-font-specification:Uroob;fill:#00b9ff;fill-opacity:1;stroke-width:0.26458332px"
         d="m 36.612571,67.488813 q 0.315227,0 0.315227,0.237711 v 3.162598 h -0.89917 v -0.268717 q -0.310059,0.268717 -0.72347,0.268717 H 34.1166 q -0.475423,0 -0.800985,-0.299723 -0.346232,-0.304891 -0.346232,-0.769979 v -4.459676 q 0,-0.470256 0.403076,-0.785482 0.382406,-0.304891 0.857829,-0.304891 h 1.560628 q 0.45992,0 0.790649,0.315226 0.335897,0.315227 0.335897,0.775147 v 0.423747 h -0.935343 q 0,-0.346232 -0.04134,-0.459921 -0.08268,-0.237711 -0.366903,-0.237711 H 34.2923 q -0.201539,0 -0.294556,0.129191 -0.09302,0.129191 -0.09302,0.315226 v 4.16512 q 0,0.387574 0.387574,0.387574 h 0.950846 q 0.294556,0 0.506429,-0.206706 0.211873,-0.201538 0.211873,-0.496094 V 68.387983 H 35.12429 v -0.661459 q 0,-0.186035 0.113688,-0.222208 0.07751,-0.02584 0.165365,-0.0155 z" />
      <path
         id="path826"
         style="font-style:normal;font-variant:normal;font-weight:normal;font-stretch:normal;font-family:Uroob;-inkscape-font-specification:Uroob;fill:#00b9ff;fill-opacity:1;stroke-width:0.26458332px"
         d="m 40.607159,69.803917 q 0,0.444417 -0.382405,0.764811 -0.356568,0.294556 -0.821656,0.294556 h -0.666626 q -0.470255,0 -0.837158,-0.289388 -0.397908,-0.315226 -0.397908,-0.769979 v -2.904215 q 0,-0.454753 0.397908,-0.769979 0.372071,-0.294556 0.837158,-0.294556 h 0.666626 q 0.454753,0 0.821656,0.299723 0.382405,0.315227 0.382405,0.764812 z m -0.883667,-0.170532 v -2.563151 q 0,-0.196371 -0.113688,-0.330729 -0.10852,-0.139527 -0.320394,-0.139527 h -0.490926 q -0.217041,0 -0.315226,0.139527 -0.09819,0.134358 -0.09819,0.330729 v 2.563151 q 0,0.19637 0.09819,0.335897 0.09819,0.134358 0.315226,0.134358 h 0.490926 q 0.211874,0 0.320394,-0.134358 0.113688,-0.139527 0.113688,-0.335897 z" />
      <path
         id="path828"
         style="font-style:normal;font-variant:normal;font-weight:normal;font-stretch:normal;font-family:Uroob;-inkscape-font-specification:Uroob;fill:#00b9ff;fill-opacity:1;stroke-width:0.26458332px"
         d="m 42.100609,66.171064 v 0.04134 l -0.206706,2.992065 h -0.614949 l -0.206706,-2.992065 v -0.04134 q 0,-0.144694 0.08785,-0.237712 0.149861,-0.160197 0.299723,-0.160197 h 0.253215 q 0.232543,0 0.356567,0.258383 0.03101,0.06718 0.03101,0.139526 z m -0.521932,3.684529 q 0.583943,0 0.583943,0.594279 0,0.594279 -0.583943,0.594279 -0.284221,0 -0.43925,-0.155029 -0.155029,-0.155029 -0.155029,-0.43925 0,-0.28422 0.155029,-0.439249 0.155029,-0.15503 0.43925,-0.15503 z" />
    </g>
  </g>
</svg>
